<svg width="24" height="24" viewBox="0 0 24 24" fill="none" xmlns="http://www.w3.org/2000/svg">
<g id="tiktok">
<path id="Vector" d="M19.2001 10.84V7.99999C17.8701 7.99999 16.8551 7.64499 16.2001 6.95499C15.5278 6.16751 15.1512 5.17026 15.1351 4.13499V3.92999L12.4501 3.86499C12.4501 3.86499 12.4501 3.97999 12.4501 4.13499V15.4C12.3579 15.9033 12.1136 16.3662 11.7501 16.7262C11.3866 17.0862 10.9214 17.3261 10.4172 17.4133C9.91308 17.5006 9.3943 17.431 8.93092 17.2141C8.46755 16.9972 8.08189 16.6433 7.82601 16.2003C7.57013 15.7572 7.45634 15.2463 7.50002 14.7365C7.5437 14.2268 7.74273 13.7427 8.07025 13.3496C8.39777 12.9565 8.83801 12.6734 9.33153 12.5385C9.82505 12.4035 10.3481 12.4233 10.8301 12.595V9.84499C10.549 9.79895 10.2648 9.77554 9.98005 9.77499C8.95554 9.77499 7.95404 10.0788 7.1022 10.648C6.25035 11.2172 5.58642 12.0262 5.19436 12.9727C4.80229 13.9192 4.69971 14.9607 4.89958 15.9656C5.09945 16.9704 5.5928 17.8934 6.31724 18.6178C7.04167 19.3422 7.96466 19.8356 8.96948 20.0355C9.9743 20.2353 11.0158 20.1327 11.9624 19.7407C12.9089 19.3486 13.7179 18.6847 14.2871 17.8328C14.8563 16.981 15.1601 15.9795 15.1601 14.955C15.1595 14.7427 15.1461 14.5307 15.1201 14.32V9.74499C16.341 10.5075 17.7614 10.8887 19.2001 10.84Z" fill="white" fill-opacity="0.5"/>
</g>
</svg>
