<svg width="24" height="24" viewBox="0 0 24 24" fill="none" xmlns="http://www.w3.org/2000/svg">
<g id="youtube">
<path id="Vector" d="M23.4959 6.20321C23.3565 5.70501 23.0909 5.25124 22.7247 4.88583C22.3585 4.52042 21.9041 4.25575 21.4056 4.11746C19.5344 3.61721 12.0119 3.61721 12.0119 3.61721C12.0119 3.61721 4.50364 3.60521 2.61289 4.11746C2.11519 4.25636 1.66173 4.5213 1.29636 4.88668C0.930981 5.25206 0.666039 5.70551 0.527139 6.20321C0.171789 8.11888 -0.00322689 10.0636 0.00438858 12.012C0.000921258 13.9509 0.175909 15.8861 0.527139 17.793C0.666488 18.2909 0.931509 18.7447 1.29676 19.1108C1.66201 19.4768 2.11522 19.7428 2.61289 19.8832C4.48414 20.3835 12.0119 20.3835 12.0119 20.3835C12.0119 20.3835 19.5156 20.3835 21.4056 19.8832C21.9041 19.7434 22.3582 19.4777 22.7243 19.1116C23.0903 18.7455 23.3561 18.2914 23.4959 17.793C23.8401 15.8872 24.0081 13.9492 23.9961 12.012C24.0081 10.062 23.8439 8.12096 23.4959 6.20321ZM9.60889 15.6022V8.40596L15.8706 12.012L9.60889 15.6022Z" fill="white" fill-opacity="0.5"/>
</g>
</svg>
