<svg width="36" height="36" viewBox="0 0 36 36" fill="none" xmlns="http://www.w3.org/2000/svg">
<rect width="36" height="36" rx="18" fill="#D9E44F" fill-opacity="0.1"/>
<path fill-rule="evenodd" clip-rule="evenodd" d="M8.46967 27.5303C8.17678 27.2374 8.17678 26.7626 8.46967 26.4697L16.1893 18.75H12.6562C12.242 18.75 11.9062 18.4142 11.9062 18C11.9062 17.5858 12.242 17.25 12.6562 17.25H18C18.4142 17.25 18.75 17.5858 18.75 18V23.3438C18.75 23.758 18.4142 24.0938 18 24.0938C17.5858 24.0938 17.25 23.758 17.25 23.3438V19.8107L9.53033 27.5303C9.23744 27.8232 8.76256 27.8232 8.46967 27.5303Z" fill="#D9E44F"/>
<path d="M9.51828 23.2997L12.5697 20.2484C11.3671 20.2029 10.4062 19.2136 10.4062 18C10.4062 16.7574 11.4136 15.75 12.6562 15.75H18C19.2426 15.75 20.25 16.7574 20.25 18V23.3438C20.25 24.5864 19.2426 25.5937 18 25.5937C16.7864 25.5937 15.7971 24.6329 15.7516 23.4303L12.7003 26.4817C14.2368 27.4438 16.0534 28 18 28C23.5228 28 28 23.5228 28 18C28 12.4772 23.5228 8 18 8C12.4772 8 8 12.4772 8 18C8 19.9466 8.55618 21.7632 9.51828 23.2997Z" fill="#D9E44F"/>
</svg>
