<svg width="24" height="25" viewBox="0 0 24 25" fill="none" xmlns="http://www.w3.org/2000/svg">
<g id="Icon Frame">
<path id="Union" fill-rule="evenodd" clip-rule="evenodd" d="M12.7071 2.79289C12.3166 2.40237 11.6834 2.40237 11.2929 2.79289L8.29289 5.79289C7.90237 6.18342 7.90237 6.81658 8.29289 7.20711L11.2929 10.2071C11.6834 10.5976 12.3166 10.5976 12.7071 10.2071L15.7071 7.20711C16.0976 6.81658 16.0976 6.18342 15.7071 5.79289L12.7071 2.79289ZM11.2929 14.7929C11.6834 14.4024 12.3166 14.4024 12.7071 14.7929L15.7071 17.7929C16.0976 18.1834 16.0976 18.8166 15.7071 19.2071L12.7071 22.2071C12.3166 22.5976 11.6834 22.5976 11.2929 22.2071L8.29289 19.2071C7.90237 18.8166 7.90237 18.1834 8.29289 17.7929L11.2929 14.7929ZM17.2929 8.79289C17.6834 8.40237 18.3166 8.40237 18.7071 8.79289L21.7071 11.7929C22.0976 12.1834 22.0976 12.8166 21.7071 13.2071L18.7071 16.2071C18.3166 16.5976 17.6834 16.5976 17.2929 16.2071L14.2929 13.2071C13.9024 12.8166 13.9024 12.1834 14.2929 11.7929L17.2929 8.79289ZM5.29289 8.79289C5.68342 8.40237 6.31658 8.40237 6.70711 8.79289L9.70711 11.7929C10.0976 12.1834 10.0976 12.8166 9.70711 13.2071L6.70711 16.2071C6.31658 16.5976 5.68342 16.5976 5.29289 16.2071L2.29289 13.2071C1.90237 12.8166 1.90237 12.1834 2.29289 11.7929L5.29289 8.79289Z" fill="#3763FF"/>
</g>
</svg>
